<?xml version="1.0" standalone="no"?>
<!DOCTYPE svg PUBLIC "-//W3C//DTD SVG 20010904//EN"
 "http://www.w3.org/TR/2001/REC-SVG-20010904/DTD/svg10.dtd">
<svg version="1.0" xmlns="http://www.w3.org/2000/svg"
 width="16.000000pt" height="16.000000pt" viewBox="0 0 16.000000 16.000000"
 preserveAspectRatio="xMidYMid meet">
<metadata>
Created by potrace 1.11, written by Peter Selinger 2001-2013
</metadata>
<g transform="translate(0.000000,16.000000) scale(0.002286,-0.002286)"
fill="#000000" stroke="none">
<path d="M0 3500 l0 -3500 3500 0 3500 0 0 3500 0 3500 -3500 0 -3500 0 0
-3500z m2138 355 c3 -1690 0 -1862 -38 -2056 -84 -434 -306 -670 -708 -754
-85 -17 -298 -35 -429 -35 l-93 0 0 198 0 199 148 6 c241 10 357 50 457 159
39 42 61 78 84 137 69 178 65 58 68 2001 2 965 5 1761 8 1768 3 10 59 12 252
10 l248 -3 3 -1630z m1656 157 c325 -809 593 -1469 597 -1465 3 5 104 253 223
553 120 300 384 960 588 1468 l370 922 259 0 c143 0 259 -3 259 -7 0 -5 -318
-794 -707 -1756 l-708 -1747 -288 2 -288 3 -710 1748 c-390 962 -709 1751
-709 1753 0 2 118 3 263 2 l262 -3 589 -1473z"/>
</g>
</svg>
